HIERARCHY
ROOT Hips
{
  OFFSET 0 0 0
  CHANNELS 6 Xposition Yposition Zposition Zrotation Yrotation Xrotation
  JOINT LeftThigh
  {
    OFFSET 8.409438 0 -5.917753
    CHANNELS 3 Zrotation Yrotation Xrotation
    JOINT LeftLeg
    {
      OFFSET 0 0 -42.358652
      CHANNELS 3 Zrotation Yrotation Xrotation
      JOINT LeftFoot
      {
        OFFSET 0 0 -39.357303
        CHANNELS 3 Zrotation Yrotation Xrotation
      }
    }
  }
  JOINT RightThigh
  {
    OFFSET -8.409438 0 -5.917753
    CHANNELS 3 Zrotation Yrotation Xrotation
    JOINT RightLeg
    {
      OFFSET 0 0 -42.358652
      CHANNELS 3 Zrotation Yrotation Xrotation
      JOINT RightFoot
      {
        OFFSET 0 0 -39.357303
        CHANNELS 3 Zrotation Yrotation Xrotation
      }
    }
  }
  JOINT SpineLow
  {
    OFFSET 0 0 4.719101
    CHANNELS 3 Zrotation Yrotation Xrotation
    JOINT SpineMid
    {
      OFFSET 0 0 12.899191
      CHANNELS 3 Zrotation Yrotation Xrotation
      JOINT Chest
      {
        OFFSET 0 0 12.899191
        CHANNELS 3 Zrotation Yrotation Xrotation
        JOINT LeftShoulder
        {
          OFFSET 7.550562 1.41573 9.438202
          CHANNELS 3 Zrotation Yrotation Xrotation
          JOINT LeftArm
          {
            OFFSET 9.155056 0 4.247191
            CHANNELS 3 Zrotation Yrotation Xrotation
            JOINT LeftForearm
            {
              OFFSET 0 0 25.771955
              CHANNELS 3 Zrotation Yrotation Xrotation
              JOINT LeftHand
              {
                OFFSET 0 0 25.197169
                CHANNELS 3 Zrotation Yrotation Xrotation
              }
            }
          }
        }
        JOINT RightShoulder
        {
          OFFSET -7.550562 1.41573 9.438202
          CHANNELS 3 Zrotation Yrotation Xrotation
          JOINT RightArm
          {
            OFFSET -9.155056 0 4.247191
            CHANNELS 3 Zrotation Yrotation Xrotation
            JOINT RightForearm
            {
              OFFSET 0 0 -25.771955
              CHANNELS 3 Zrotation Yrotation Xrotation
              JOINT RightHand
              {
                OFFSET 0 0 -25.197169
                CHANNELS 3 Zrotation Yrotation Xrotation
              }
            }
          }
        }
        JOINT Neck
        {
          OFFSET 0 0 15.101124
          CHANNELS 3 Zrotation Yrotation Xrotation
          JOINT Head
          {
            OFFSET 0 0 11.325843
            CHANNELS 3 Zrotation Yrotation Xrotation
            End Site
            {
              OFFSET 0 0 14.157303
            }
          }
        }
      }
    }
  }
}
MOTION
Frames: 8
Frame Time: 0.0
0.0  93.25843  0.0  1.40629  30.88017  -86.508315  -17.123876  -13.795838  -16.899894  -2.402936  -2.529257  17.537824  5.450079  -0.197471  4.632242  -31.181762  3.477278  -7.544274  -24.584897  8.961839  5.105439  2.040051  1.480389  1.274744  3.060393  0.285768  0.134562  8.367182  0.762668  0.403274  8.367183  0.762668  0.403274  -52.090898  18.191783  -0.641273  149.357409  48.261313  -139.382787  -32.346155  20.145227  79.515657  91.305889  -8.638702  -28.504002  4.517051  -24.770993  32.791272  33.083599  71.57733  4.540373  12.500944  24.191563  -36.65801  86.671813  12.5802  18.289924  -29.539047  1.866431  17.506397  -22.227816  0.554217  13.256052  
0.0  93.25843  0.0  1.371515  31.259654  -86.510128  -16.86893  -13.830927  -17.175623  -3.286572  -2.195415  17.874225  5.527777  -0.17289  4.650064  -31.415657  3.282968  -7.657373  -24.791959  9.452103  5.374439  2.069661  1.58514  1.259365  3.001858  0.240937  0.151466  8.206987  0.638628  0.443171  8.206987  0.638628  0.443171  -51.94724  18.041898  -0.89717  149.251802  48.289396  -139.622687  -33.021811  20.008111  79.493344  91.966911  -8.284093  -28.762075  4.805367  -24.866886  32.855568  35.396072  71.933906  6.468308  11.256457  23.680111  -36.974701  86.348173  12.578868  18.437823  -29.402721  1.940352  17.33272  -22.126441  0.622191  13.128151  
0.0  93.25843  0.0  1.792733  32.453716  -86.100584  -17.670522  -13.655366  -17.703898  -4.307662  -1.890382  17.943395  5.909053  -0.034923  5.014837  -32.588395  3.301881  -8.161467  -24.797494  10.016035  5.734881  2.056615  1.646787  1.236813  2.769067  0.274139  0.156954  7.570995  0.730244  0.459748  7.570995  0.730244  0.459748  -51.637535  17.77595  -0.984507  149.271321  48.33288  -139.736045  -32.749737  18.746387  79.97184  92.352803  -7.292408  -28.725495  5.084307  -25.021544  32.859625  36.249601  72.136901  6.873655  10.705672  23.376668  -37.369553  86.079854  10.779798  18.012473  -29.182988  2.005171  17.170607  -21.962253  0.685024  13.008016  
0.0  93.25843  0.0  1.767354  32.50894  -86.193965  -17.660907  -13.681257  -17.822225  -4.722551  -1.564248  18.417442  5.993559  0.012668  5.044866  -32.675774  3.169929  -8.339734  -24.785361  10.553406  6.153268  2.058057  1.736928  1.205859  2.712743  0.24426  0.193459  7.417129  0.645009  0.555428  7.41713  0.645009  0.555428  -51.488712  17.573326  -1.108551  149.612367  48.367104  -139.674416  -31.825542  16.959504  80.69269  92.436413  -6.007674  -28.362112  5.104436  -24.973435  32.77639  36.258391  72.235082  6.416501  10.662581  23.112425  -37.919756  85.915743  10.75469  17.799866  -28.974122  2.007862  16.973889  -21.80441  0.702309  12.859013  
0.0  93.25843  0.0  2.16015  33.292785  -85.864791  -18.567816  -13.456133  -18.213714  -4.963763  -1.358631  18.930718  6.121134  0.109036  5.144319  -33.668547  3.235164  -8.950457  -24.619402  11.202062  6.679808  2.109549  1.751564  1.187438  2.445592  0.284921  0.183255  6.687167  0.759364  0.529135  6.687167  0.759364  0.529135  -50.804889  17.383552  -1.081937  150.143057  48.353568  -139.4804  -30.791885  15.550845  81.474289  92.736242  -4.540526  -27.75352  5.542677  -25.022886  32.801755  36.01325  72.485197  5.80763  10.76432  22.656444  -38.704254  85.815611  10.811498  17.506109  -28.482452  2.095398  16.894536  -21.437111  0.785611  12.800526  
0.0  93.25843  0.0  2.131204  32.932171  -86.003142  -18.441749  -13.361506  -18.222768  -5.098843  -1.18441  19.485457  6.129183  0.211841  5.162963  -33.547425  3.158103  -9.301658  -24.559648  11.840814  7.282726  2.174548  1.822549  1.138977  2.375742  0.260362  0.196289  6.496137  0.691609  0.561519  6.496137  0.691609  0.561519  -50.39401  17.33009  -1.209712  150.931063  48.342367  -139.192388  -29.741147  14.17702  81.949749  92.595566  -3.341737  -27.125746  5.538353  -24.940418  32.713137  37.298706  72.725352  6.740281  10.6994  22.109926  -39.763374  85.743868  10.917118  17.141374  -28.099332  2.173282  16.80319  -21.150965  0.859064  12.733117  
0.0  93.25843  0.0  2.518539  33.312972  -85.668369  -19.36109  -12.999098  -18.726864  -5.012665  -1.154626  20.272687  6.192963  0.335418  5.235879  -34.188402  3.196473  -10.075556  -24.392068  12.560398  7.952894  2.078666  1.783225  1.10996  2.094163  0.30718  0.130532  5.726099  0.827623  0.383092  5.7261  0.827623  0.383092  -49.152756  17.124341  -0.995545  151.725378  48.121786  -138.629062  -29.064878  13.396157  82.174061  92.450665  -2.332948  -26.520695  5.908021  -25.059412  32.911172  39.564842  72.949963  8.742992  10.366276  21.52484  -41.034851  85.587244  11.021607  16.670069  -27.412671  2.363805  16.909059  -20.640976  1.016591  12.816977  
0.0  93.25843  0.0  2.407905  32.457661  -85.844844  -18.723786  -12.850881  -18.649234  -5.283438  -1.020702  20.799469  6.163309  0.488965  5.21396  -33.573908  3.023661  -10.510681  -24.34374  13.220979  8.615554  2.181254  1.900282  1.079754  2.058997  0.291944  0.105291  5.629569  0.788373  0.312418  5.629569  0.788373  0.312418  -48.595967  17.187146  -0.960706  152.771844  48.125373  -138.198855  -28.654022  13.248014  82.268833  92.347008  -1.537824  -25.963075  5.623624  -24.940402  32.992835  43.091617  73.046762  11.738286  9.919103  20.909712  -42.438691  85.274265  11.043511  16.079022  -26.998728  2.495407  16.955899  -20.333872  1.12501  12.85527  
